# xmcd CD database file
#
# Track frame offsets:
#	150
#	17175
#	32640
#	43673
#	55860
#	69443
#	80375
#	88858
#	102770
#	114865
#	123890
#	140185
#	152725
#	171043
#
# Disc length: 2306 seconds
#
# Revision: 0
# Processed by: cddbd v1.5.1PL0 Copyright (c) Steve Scherf et al.
# Submitted via: CDex 1.50
#
DISCID=b109000e
DTITLE=Powersolo - It's Raceday
DYEAR=2004
DGENRE=Country
TTITLE0=Baby, You Ain't Look Right
TTITLE1=Kat Nazer(Powersoul)
TTITLE2=Mr. Suit
TTITLE3=Juanito
TTITLE4=Oak Tree Girl
TTITLE5=Hillbilly Child
TTITLE6=Nascar
TTITLE7=Fertilizer Baby
TTITLE8=Good Behavior
TTITLE9=Booty Smoke
TTITLE10=Broken Wings
TTITLE11=Be Witcha
TTITLE12=Don't Hate Me Baby
TTITLE13=Truckin'
EXTD=YEAR: 2004
EXTT0=
EXTT1=
EXTT2=
EXTT3=
EXTT4=
EXTT5=
EXTT6=
EXTT7=
EXTT8=
EXTT9=
EXTT10=
EXTT11=
EXTT12=
EXTT13=
PLAYORDER=
